# WaveFront *.obj file (generated by CINEMA 4D)

v -144.58609008789062 -143.30545043945312 536.59112548828125
v -262.22579956054688 -398.70742797851562 310.42333984375
v 0.29084643721581 -173.52438354492188 207.47314453125
v -146.61630249023438 80.32024383544922 -2.7703697681427
v -382.286865234375 267.42376708984375 196.40995788574219
v -499.92657470703125 12.0217866897583 -29.7578182220459
v -644.80352783203125 42.24072265625 299.36013793945312
v -497.89633178710938 -211.60389709472656 509.60366821289062
v -73.13549041748047 152.74993896484375 343.02676391601562
v -381.0321044921875 129.21549987792969 529.753662109375
v -571.37713623046875 -284.03359985351562 163.80653381347656
v -263.48056030273438 -260.49917602539062 -22.92038726806641
v 418.45382690429688 -139.93898010253906 323.84567260742188
v 292.466064453125 -331.56317138671875 -190.44189453125
v 644.80352783203125 103.59696197509766 -130.62162780761719
v 357.2679443359375 576.09405517578125 -236.23550415039062
v -46.78847503662109 624.57733154296875 152.9588623046875
v -172.7762451171875 432.95315551757812 -361.3287353515625
v -399.12591552734375 189.41720581054688 93.13859558105469
v -111.59034729003906 -283.07986450195312 198.75245666503906
v 458.50360107421875 421.02401733398438 295.54367065429688
v -8.97350883483887 182.04460144042969 499.10806274414062
v -212.82600402832031 -128.00984191894531 -333.0267333984375
v 254.65109252929688 110.96957397460938 -536.59112548828125
v -398.34530639648438 532.84954833984375 258.78515625
v -327.86981201171875 107.41778564453125 45.99396514892578
v 43.3865966796875 343.77310180664062 239.75643920898438
v 282.96383666992188 561.3570556640625 -115.91056823730469
v -10.70118808746338 884.90777587890625 -316.69613647460938
v 59.77430725097656 459.47604370117188 -529.4873046875
v -381.95758056640625 648.55242919921875 -510.4586181640625
v -621.53485107421875 430.96847534179688 -154.79161071777344
v -20.82934951782227 813.3994140625 158.72264099121094
v -431.77337646484375 867.28912353515625 -85.1214599609375
v -317.74163818359375 178.92613220214844 -429.42483520507812
v 93.20240020751953 125.03642272949219 -185.58071899414062
v -80.47872924804688 -884.90777587890625 98.69587707519531
v -47.1453971862793 -884.90777587890625 98.69587707519531
v -13.81206512451172 -884.90777587890625 98.69587707519531
v 19.52126884460449 -884.90777587890625 98.69587707519531
v -80.47872924804688 527.70916748046875 98.69587707519531
v -53.51149749755859 -884.90777587890625 79.10303497314453
v -26.54426574707031 -884.90777587890625 59.51019287109375
v 0.4229676425457 -884.90777587890625 39.91735076904297
v -70.17816162109375 -884.90777587890625 66.99398803710938
v -59.87759780883789 -884.90777587890625 35.29210662841797
v -49.57703399658203 -884.90777587890625 3.59022378921509
v -90.779296875 -884.90777587890625 66.99398803710938
v -101.07986450195312 -884.90777587890625 35.29210662841797
v -111.38043212890625 -884.90777587890625 3.59022378921509
v -107.44596862792969 -884.90777587890625 79.10303497314453
v -134.41319274902344 -884.90777587890625 59.51019287109375
v -161.38043212890625 -884.90777587890625 39.91735076904297
v -113.81206512451172 -884.90777587890625 98.69587707519531
v -147.14540100097656 -884.90777587890625 98.69587707519531
v -180.47872924804688 -884.90777587890625 98.69587707519531
v -107.44596862792969 -884.90777587890625 118.28871917724609
v -134.41319274902344 -884.90777587890625 137.88156127929688
v -161.38043212890625 -884.90777587890625 157.47439575195312
v -90.779296875 -884.90777587890625 130.39776611328125
v -101.07986450195312 -884.90777587890625 162.09963989257812
v -111.38043212890625 -884.90777587890625 193.80152893066406
v -70.17816162109375 -884.90777587890625 130.39776611328125
v -59.87759780883789 -884.90777587890625 162.09963989257812
v -49.57703399658203 -884.90777587890625 193.80152893066406
v -53.51149749755859 -884.90777587890625 118.28871917724609
v -26.54426574707031 -884.90777587890625 137.88156127929688
v 0.4229676425457 -884.90777587890625 157.47439575195312
# 68 vertices

vn 0.4497996866703 0.41016307473183 0.7933766245842
vn 0 0 0
vn 0.91586452722549 0.04014490544796 0.39947530627251
vn 0.91338312625885 0.31346723437309 -0.25974902510643
vn 0.44578471779823 0.85240775346756 -0.27327084541321
vn 0.15927442908287 0.91216909885406 0.37759664654732
vn -0.53943586349487 0.7771013379097 0.32422599196434
vn -0.68073743581772 0.19161874055862 0.70702105760574
vn -0.06935623288155 -0.03516149148345 0.99697208404541
vn -0.15927451848984 -0.91216909885406 -0.37759658694267
vn 0.53943598270416 -0.77710127830505 -0.32422590255737
vn 0.68073749542236 -0.19161874055862 -0.70702105760574
vn 0.06935618817806 0.03516156971455 -0.99697208404541
vn -0.44979980587959 -0.4101630449295 -0.7933766245842
vn -0.91586452722549 -0.04014505818486 -0.39947539567947
vn -0.91338306665421 -0.31346735358238 0.25974905490875
vn -0.44578474760056 -0.85240775346756 0.27327081561089
vn 0.07585255801678 -0.68040549755096 0.72889971733093
vn 0.68475246429443 -0.63386344909668 0.35962641239166
vn -0.075852625072 0.68040549755096 -0.72889971733093
vn -0.68475246429443 0.63386350870132 -0.35962644219398
vn 0.39121356606483 0.01849151216447 0.9201140999794
vn 0.90329164266586 -0.04295347630978 0.4268713593483
vn 0.8553671836853 0.51788741350174 -0.01181850861758
vn 0.3136699795723 0.92595106363297 0.21029911935329
vn 0.02680730260909 0.61730742454529 0.7862651348114
vn -0.64494061470032 0.43589887022972 0.62772905826569
vn -0.69569736719131 -0.27503383159637 0.66359740495682
vn -0.05531891435385 -0.5330057144165 0.84430134296417
vn -0.02680728770792 -0.61730748414993 -0.78626507520676
vn 0.64494061470032 -0.4358988404274 -0.62772905826569
vn 0.69569742679596 0.27503377199173 -0.66359746456146
vn 0.05531890690327 0.5330057144165 -0.84430134296417
vn -0.39121356606483 -0.01849153079093 -0.9201140999794
vn -0.90329170227051 0.04295346513391 -0.42687132954597
vn -0.85536712408066 -0.51788741350174 0.01181855704635
vn -0.31367003917694 -0.92595106363297 -0.21029905974865
vn 0.18078699707985 -0.9352947473526 0.30420359969139
vn 0.77324098348618 -0.6324257850647 0.04621771350503
vn -0.18078702688217 0.9352947473526 -0.30420354008675
vn -0.77324098348618 0.6324257850647 -0.04621764272451
vn -0.31468310952187 0.66501486301422 0.67729592323303
vn 0.12113304436207 0.18484653532505 0.97527354955673
vn 0.74602895975113 0.21099360287189 0.63160306215286
vn 0.69641971588135 0.70732164382935 0.12122546136379
vn 0.04086354374886 0.98792225122452 0.14946521818638
vn -0.29036289453506 0.83672475814819 -0.46430709958076
vn -0.85061872005463 0.4203722178936 -0.31580847501755
vn -0.86564952135086 0.31424966454506 0.38974100351334
vn -0.04086355492473 -0.98792225122452 -0.14946517348289
vn 0.2903628051281 -0.83672481775284 0.46430709958076
vn 0.85061872005463 -0.4203722178936 0.31580844521523
vn 0.86564952135086 -0.31424960494041 -0.3897410929203
vn 0.31468325853348 -0.66501474380493 -0.67729598283768
vn -0.12113294005394 -0.18484647572041 -0.97527360916138
vn -0.74602890014648 -0.21099361777306 -0.63160318136215
vn -0.69641971588135 -0.70732170343399 -0.12122545391321
vn -0.7703492641449 -0.38270354270935 0.50999999046326
vn -0.16048416495323 -0.46267905831337 0.87187898159027
vn 0.7703492641449 0.38270357251167 -0.50999999046326
vn 0.16048415005207 0.46267899870872 -0.87187898159027
# 61 normals

vt 0 1 0
vt 1 1 0
vt 0.5 0 0
# 3 texture coordinates

o Объект_Ноль.2
usemtl default
f 1/3/1 9/2/1 10/1/1
f 1/3/3 3/2/3 9/1/3
f 3/3/4 4/2/4 9/1/4
f 4/3/5 5/2/5 9/1/5
f 5/3/6 10/2/6 9/1/6
f 7/3/7 10/2/7 5/1/7
f 8/3/8 10/2/8 7/1/8
f 8/3/9 1/2/9 10/1/9
f 2/3/10 11/2/10 12/1/10
f 2/3/11 12/2/11 3/1/11
f 12/3/12 4/2/12 3/1/12
f 12/3/13 6/2/13 4/1/13
f 12/3/14 11/2/14 6/1/14
f 11/3/15 7/2/15 6/1/15
f 11/3/16 8/2/16 7/1/16
f 11/3/17 2/2/17 8/1/17
f 1/3/18 8/2/18 2/1/18
f 1/3/19 2/2/19 3/1/19
f 4/3/20 6/2/20 5/1/20
f 6/3/21 7/2/21 5/1/21
f 13/3/22 21/2/22 22/1/22
f 13/3/23 15/2/23 21/1/23
f 15/3/24 16/2/24 21/1/24
f 16/3/25 17/2/25 21/1/25
f 17/3/26 22/2/26 21/1/26
f 19/3/27 22/2/27 17/1/27
f 20/3/28 22/2/28 19/1/28
f 20/3/29 13/2/29 22/1/29
f 14/3/30 23/2/30 24/1/30
f 14/3/31 24/2/31 15/1/31
f 24/3/32 16/2/32 15/1/32
f 24/3/33 18/2/33 16/1/33
f 24/3/34 23/2/34 18/1/34
f 23/3/35 19/2/35 18/1/35
f 23/3/36 20/2/36 19/1/36
f 23/3/37 14/2/37 20/1/37
f 13/3/38 20/2/38 14/1/38
f 13/3/39 14/2/39 15/1/39
f 16/3/40 18/2/40 17/1/40
f 18/3/41 19/2/41 17/1/41
f 25/3/42 33/2/42 34/1/42
f 25/3/43 27/2/43 33/1/43
f 27/3/44 28/2/44 33/1/44
f 28/3/45 29/2/45 33/1/45
f 29/3/46 34/2/46 33/1/46
f 31/3/47 34/2/47 29/1/47
f 32/3/48 34/2/48 31/1/48
f 32/3/49 25/2/49 34/1/49
f 26/3/50 35/2/50 36/1/50
f 26/3/51 36/2/51 27/1/51
f 36/3/52 28/2/52 27/1/52
f 36/3/53 30/2/53 28/1/53
f 36/3/54 35/2/54 30/1/54
f 35/3/55 31/2/55 30/1/55
f 35/3/56 32/2/56 31/1/56
f 35/3/57 26/2/57 32/1/57
f 25/3/58 32/2/58 26/1/58
f 25/3/59 26/2/59 27/1/59
f 28/3/60 30/2/60 29/1/60
f 30/3/61 31/2/61 29/1/61

