# WaveFront *.obj file (generated by CINEMA 4D)

v 614.81396484375 -38.00006484985352 249.99061584472656
v 409.48031616210938 -400.24636840820312 133.84809875488281
v 607.37115478515625 -158.6474609375 -165.05418395996094
v 306.40606689453125 76.76896667480469 -367.22366333007812
v 127.84226226806641 342.9117431640625 -77.12648773193359
v -77.49140167236328 -19.33456993103027 -193.26899719238281
v -70.04855346679688 101.31283569335938 221.77580261230469
v 230.91651916503906 -134.10360717773438 423.94528198242188
v 551.110595703125 256.81161499023438 -59.68876647949219
v 318.44882202148438 271.98056030273438 304.33291625976562
v -13.78800392150879 -314.14627075195312 116.41038513183594
v 218.87374877929688 -329.315185546875 -247.61129760742188
v 141.46768188476562 -51.92312622070312 450.13052368164062
v 101.38453674316406 -330.69891357421875 -37.47779083251953
v 449.44549560546875 109.68153381347656 7.27832651138306
v 197.15121459960938 555.37445068359375 -226.79405212402344
v -266.75302124023438 669.22320556640625 71.39345550537109
v -306.836181640625 390.44741821289062 -416.21487426757812
v -614.81396484375 228.84274291992188 26.6373405456543
v -362.51971435546875 -216.85018920898438 260.709716796875
v 200.65475463867188 495.7003173828125 333.12664794921875
v -301.16732788085938 293.89263916015625 489.755859375
v -366.02322387695312 -157.17605590820312 -299.21096801757812
v 135.79884338378906 44.63164901733398 -455.84017944335938
v -87.55726623535156 468.647216796875 400.2271728515625
v 62.16862106323242 12.29737758636475 184.6488037109375
v 424.293212890625 353.48934936523438 356.69781494140625
v 614.50689697265625 612.794921875 -60.1071891784668
v 220.2149658203125 888.21240234375 -274.177490234375
v 369.94085693359375 431.86260986328125 -489.755859375
v -141.90962219238281 547.02044677734375 -446.22650146484375
v -332.12332153320312 287.71490478515625 -29.42151260375977
v 253.80656433105469 839.77508544921875 248.95964050292969
v -213.68455505371094 799.124267578125 10.3247709274292
v 28.57701873779297 60.73471069335938 -338.48834228515625
v 496.06814575195312 101.38555908203125 -99.85346984863281
v 123.87709808349609 -888.21240234375 86.38043212890625
v 157.21043395996094 -888.21240234375 86.38043212890625
v 190.54376220703125 -888.21240234375 86.38043212890625
v 223.87709045410156 -888.21240234375 86.38043212890625
v 123.87709808349609 524.404541015625 86.38043212890625
v 150.84432983398438 -888.21240234375 66.78759002685547
v 177.81156921386719 -888.21240234375 47.19475173950195
v 204.77879333496094 -888.21240234375 27.60190963745117
v 134.17765808105469 -888.21240234375 54.67855072021484
v 144.47822570800781 -888.21240234375 22.9766674041748
v 154.77879333496094 -888.21240234375 -8.72521591186523
v 113.57653045654297 -888.21240234375 54.67855072021484
v 103.27596282958984 -888.21240234375 22.9766674041748
v 92.97539520263672 -888.21240234375 -8.72521591186523
v 96.90986633300781 -888.21240234375 66.78759002685547
v 69.94263458251953 -888.21240234375 47.19475173950195
v 42.97539901733398 -888.21240234375 27.60190963745117
v 90.54376220703125 -888.21240234375 86.38043212890625
v 57.21043014526367 -888.21240234375 86.38043212890625
v 23.87709808349609 -888.21240234375 86.38043212890625
v 96.90986633300781 -888.21240234375 105.97327423095703
v 69.94263458251953 -888.21240234375 125.56611633300781
v 42.97539901733398 -888.21240234375 145.15896606445312
v 113.57653045654297 -888.21240234375 118.08232116699219
v 103.27596282958984 -888.21240234375 149.78421020507812
v 92.97539520263672 -888.21240234375 181.486083984375
v 134.17765808105469 -888.21240234375 118.08232116699219
v 144.47822570800781 -888.21240234375 149.78421020507812
v 154.77879333496094 -888.21240234375 181.486083984375
v 150.84432983398438 -888.21240234375 105.97327423095703
v 177.81156921386719 -888.21240234375 125.56611633300781
v 204.77879333496094 -888.21240234375 145.15896606445312
# 68 vertices

vn 0.69214886426926 0.58849281072617 0.41785907745361
vn 0 0 0
vn 0.98693120479584 0.14913064241409 -0.06104826554656
vn 0.67226803302765 0.26622748374939 -0.69078117609024
vn 0.18301320075989 0.77795940637588 -0.60107010602951
vn 0.1953002512455 0.97713035345078 0.08410726487637
vn -0.43845748901367 0.81847769021988 0.37128058075905
vn -0.33329263329506 0.3317873775959 0.88251525163651
vn 0.36546048521996 0.18964892625809 0.91130232810974
vn -0.19530019164085 -0.97713041305542 -0.08410729467869
vn 0.43845745921135 -0.81847774982452 -0.37128058075905
vn 0.33329260349274 -0.33178740739822 -0.88251525163651
vn -0.36546048521996 -0.18964889645576 -0.91130232810974
vn -0.69214886426926 -0.58849275112152 -0.41785904765129
vn -0.98693120479584 -0.14913064241409 0.06104835867882
vn -0.672267973423 -0.26622745394707 0.69078123569489
vn -0.18301317095757 -0.77795946598053 0.60107010602951
vn 0.45833829045296 -0.4962123632431 0.73735964298248
vn 0.84242832660675 -0.52125400304794 0.13641396164894
vn -0.45833832025528 0.49621233344078 -0.73735970258713
vn -0.84242832660675 0.52125400304794 -0.13641384243965
vn 0.22636862099171 0.18005873262882 0.95725446939468
vn 0.81429451704025 0.03577333688736 0.57934856414795
vn 0.85790926218033 0.51144599914551 0.0491397716105
vn 0.29693883657455 0.94971323013306 0.09935867041349
vn -0.09337478131056 0.74490463733673 0.66060447692871
vn -0.73209983110428 0.53588539361954 0.42054325342178
vn -0.8071101307869 -0.15814135968685 0.56882733106613
vn -0.21474406123161 -0.37805438041687 0.90053308010101
vn 0.09337482601404 -0.74490463733673 -0.66060441732407
vn 0.73209983110428 -0.53588545322418 -0.42054331302643
vn 0.80711007118225 0.15814135968685 -0.56882739067078
vn 0.2147441059351 0.37805435061455 -0.90053308010101
vn -0.22636862099171 -0.18005879223347 -0.95725446939468
vn -0.8142945766449 -0.03577341139317 -0.57934844493866
vn -0.85790926218033 -0.51144593954086 -0.04913982748985
vn -0.29693880677223 -0.94971323013306 -0.0993587076664
vn 0.1005591750145 -0.86727267503738 0.48757147789001
vn 0.73653995990753 -0.61151307821274 0.28906846046448
vn -0.10055909305811 0.86727267503738 -0.48757144808769
vn -0.73654001951218 0.61151307821274 -0.28906843066216
vn -0.39461141824722 0.63402980566025 0.66504740715027
vn 0.13988463580608 0.26067808270454 0.95523780584335
vn 0.72807204723358 0.38144466280937 0.5695708990097
vn 0.55709588527679 0.82943421602249 0.04102523997426
vn -0.13676060736179 0.98554044961929 0.10003292560577
vn -0.46829056739807 0.74027138948441 -0.48239222168922
vn -0.93103814125061 0.23717613518238 -0.27733626961708
vn -0.88550192117691 0.1715152412653 0.43182039260864
vn 0.1367606818676 -0.98554044961929 -0.1000329554081
vn 0.46829065680504 -0.74027138948441 0.48239210247993
vn 0.93103820085526 -0.23717612028122 0.27733623981476
vn 0.88550198078156 -0.17151522636414 -0.43182036280632
vn 0.39461147785187 -0.63402980566025 -0.66504740715027
vn -0.13988463580608 -0.26067808270454 -0.95523780584335
vn -0.72807210683823 -0.38144463300705 -0.56957095861435
vn -0.55709594488144 -0.82943415641785 -0.04102529212832
vn -0.65439289808273 -0.48768621683121 0.57786852121353
vn -0.0206691250205 -0.43258056044579 0.90135836601257
vn 0.65439283847809 0.48768624663353 -0.57786864042282
vn 0.02066913060844 0.43258059024811 -0.90135830640793
# 61 normals

vt 0 1 0
vt 1 1 0
vt 0.5 0 0
# 3 texture coordinates

o Объект_Ноль
usemtl default
f 1/3/1 9/2/1 10/1/1
f 1/3/3 3/2/3 9/1/3
f 3/3/4 4/2/4 9/1/4
f 4/3/5 5/2/5 9/1/5
f 5/3/6 10/2/6 9/1/6
f 7/3/7 10/2/7 5/1/7
f 8/3/8 10/2/8 7/1/8
f 8/3/9 1/2/9 10/1/9
f 2/3/10 11/2/10 12/1/10
f 2/3/11 12/2/11 3/1/11
f 12/3/12 4/2/12 3/1/12
f 12/3/13 6/2/13 4/1/13
f 12/3/14 11/2/14 6/1/14
f 11/3/15 7/2/15 6/1/15
f 11/3/16 8/2/16 7/1/16
f 11/3/17 2/2/17 8/1/17
f 1/3/18 8/2/18 2/1/18
f 1/3/19 2/2/19 3/1/19
f 4/3/20 6/2/20 5/1/20
f 6/3/21 7/2/21 5/1/21
f 13/3/22 21/2/22 22/1/22
f 13/3/23 15/2/23 21/1/23
f 15/3/24 16/2/24 21/1/24
f 16/3/25 17/2/25 21/1/25
f 17/3/26 22/2/26 21/1/26
f 19/3/27 22/2/27 17/1/27
f 20/3/28 22/2/28 19/1/28
f 20/3/29 13/2/29 22/1/29
f 14/3/30 23/2/30 24/1/30
f 14/3/31 24/2/31 15/1/31
f 24/3/32 16/2/32 15/1/32
f 24/3/33 18/2/33 16/1/33
f 24/3/34 23/2/34 18/1/34
f 23/3/35 19/2/35 18/1/35
f 23/3/36 20/2/36 19/1/36
f 23/3/37 14/2/37 20/1/37
f 13/3/38 20/2/38 14/1/38
f 13/3/39 14/2/39 15/1/39
f 16/3/40 18/2/40 17/1/40
f 18/3/41 19/2/41 17/1/41
f 25/3/42 33/2/42 34/1/42
f 25/3/43 27/2/43 33/1/43
f 27/3/44 28/2/44 33/1/44
f 28/3/45 29/2/45 33/1/45
f 29/3/46 34/2/46 33/1/46
f 31/3/47 34/2/47 29/1/47
f 32/3/48 34/2/48 31/1/48
f 32/3/49 25/2/49 34/1/49
f 26/3/50 35/2/50 36/1/50
f 26/3/51 36/2/51 27/1/51
f 36/3/52 28/2/52 27/1/52
f 36/3/53 30/2/53 28/1/53
f 36/3/54 35/2/54 30/1/54
f 35/3/55 31/2/55 30/1/55
f 35/3/56 32/2/56 31/1/56
f 35/3/57 26/2/57 32/1/57
f 25/3/58 32/2/58 26/1/58
f 25/3/59 26/2/59 27/1/59
f 28/3/60 30/2/60 29/1/60
f 30/3/61 31/2/61 29/1/61

